<svg width="40" height="38" viewBox="0 0 40 38" fill="none" xmlns="http://www.w3.org/2000/svg">
<path d="M20.5938 7.12957C20.2517 6.83441 19.7483 6.83441 19.4063 7.12957L5.70498 18.9472C5.50526 19.1191 5.38989 19.3709 5.38989 19.6365V36.7267C5.38989 37.2302 5.79691 37.6364 6.2988 37.6364H33.7014C34.2031 37.6364 34.6103 37.2301 34.6103 36.7267V19.6365C34.6103 19.3708 34.4949 19.119 34.2952 18.9472L20.5938 7.12957ZM32.7918 35.8187H7.20841V20.0514L20.0001 9.01672L32.7918 20.0514V35.8187Z" fill="#19BCE4"/>
<path d="M39.3668 16.4384L21.1855 0.803098C20.5033 0.217978 19.4963 0.217978 18.814 0.803098L0.632614 16.4384C-0.128646 17.0929 -0.215383 18.2405 0.439071 19.0026C1.09535 19.763 2.24285 19.8499 3.00327 19.1953L19.9997 4.57909L36.9961 19.1953C37.3399 19.4906 37.7609 19.6364 38.1801 19.6364C38.6923 19.6364 39.2009 19.4211 39.5603 19.0026C40.2149 18.2405 40.1281 17.0929 39.3668 16.4384Z" fill="#19BCE4"/>
<path d="M15.5893 17.3584C13.3567 17.3584 10.8445 18.5789 10.4904 22.0008C9.78024 28.8635 19.3775 34.0059 19.7855 34.2229C19.8523 34.2576 19.9253 34.275 19.9982 34.275C20.0703 34.275 20.144 34.2576 20.2109 34.2229C20.6189 34.0059 30.2161 28.8635 29.5077 22.0008C29.1545 18.5789 26.6415 17.3584 24.408 17.3584C22.8255 17.3584 21.2074 17.9191 19.9983 18.8705C18.7889 17.9191 17.1701 17.3584 15.5893 17.3584Z" fill="#19BCE4"/>
</svg>
