<svg width="56" height="56" viewBox="0 0 56 56" fill="none" xmlns="http://www.w3.org/2000/svg">
<g clip-path="url(#clip0_29_325)">
<path d="M48.378 21.678V20.3783C48.378 9.11542 39.2648 0.000976562 28.0007 0.000976562C16.7646 0.000976562 7.62341 9.14221 7.62341 20.3783V21.678C3.15386 22.9455 -0.260468 27.2137 0.0164559 32.3733C0.31578 37.9496 4.99362 42.3118 10.4978 42.3118C13.2103 42.3118 15.4096 40.1227 15.4096 37.4085V26.1818C15.4096 23.6125 13.4282 21.4942 10.9175 21.2958V20.3784C10.9175 10.9587 18.581 3.29518 28.0007 3.29518C37.443 3.29518 45.0839 10.9351 45.0839 20.3784V21.2955C42.5761 21.4912 40.5918 23.6108 40.5918 26.1819V37.4086C40.5918 39.9776 42.5642 42.082 45.0839 42.2932C45.0839 46.7513 41.5931 49.8518 37.6777 49.8518H34.0924C33.4334 48.182 31.8049 46.9969 29.9038 46.9969H26.0974C23.615 46.9969 21.5954 49.0165 21.5954 51.4988C21.5954 53.9811 23.615 56.0008 26.0974 56.0008H29.9038C31.8049 56.0008 33.4334 54.8157 34.0924 53.1459H37.6776C43.5777 53.1459 48.3779 48.3453 48.3779 42.4444V41.9043C52.5806 40.693 55.7413 36.9129 55.9848 32.3734C56.2609 27.2315 52.8631 22.9501 48.378 21.678V21.678ZM12.1155 26.1818V37.4085C12.1155 38.2406 11.4757 39.0374 10.3706 39.0164C6.61025 38.9426 3.50699 35.9471 3.30572 32.1968C3.08161 28.0227 6.38768 24.5732 10.5166 24.5732H10.5448C11.4109 24.5765 12.1155 25.2981 12.1155 26.1818V26.1818ZM29.9039 52.7066H26.0975C25.4315 52.7066 24.8896 52.1647 24.8896 51.4987C24.8896 50.8328 25.4315 50.2909 26.0975 50.2909H29.9039C30.571 50.2909 31.1133 50.8345 31.1116 51.5019C31.1098 52.1664 30.5688 52.7066 29.9039 52.7066ZM52.6956 32.1968C52.4943 35.9471 49.391 38.9426 45.6308 39.0164C44.5459 39.0383 43.8858 38.2584 43.8858 37.4085V26.1818C43.8858 25.2981 44.5904 24.5765 45.4502 24.5732H45.4846C49.6142 24.5732 52.9197 28.0231 52.6956 32.1968Z" fill="#19BCE4"/>
<path d="M29.1639 40.896L36.7694 33.2905C39.1386 30.9213 39.1388 27.0867 36.7694 24.7173C34.59 22.5378 30.8133 22.1009 27.9993 24.9141C25.2235 22.139 21.4415 22.5049 19.2292 24.7172C16.8599 27.0865 16.8597 30.9211 19.2292 33.2905L26.8347 40.896C27.4777 41.5391 28.5206 41.5392 29.1639 40.896ZM21.5583 27.0465C22.6376 25.9673 24.3937 25.9672 25.473 27.0465L26.8345 28.4079C27.4776 29.0511 28.5205 29.0511 29.1638 28.4079L30.5252 27.0465C31.6046 25.9672 33.3605 25.9671 34.4399 27.0465C35.5217 28.1281 35.5219 29.8792 34.4399 30.9612L27.9991 37.4019L21.5582 30.9612C20.4766 29.8795 20.4764 28.1285 21.5583 27.0465V27.0465Z" fill="#19BCE4"/>
</g>
<defs>
<clipPath id="clip0_29_325">
<rect width="56" height="56" fill="white"/>
</clipPath>
</defs>
</svg>
