<svg width="50" height="56" viewBox="0 0 50 56" fill="none" xmlns="http://www.w3.org/2000/svg">
<path d="M48.7379 53.8123H47.9682V1.09375C47.9682 0.48967 47.4784 0 46.8744 0H24.9999C24.3957 0 23.9061 0.48967 23.9061 1.09375V14.4378H3.12494C2.52075 14.4378 2.03119 14.9276 2.03119 15.5315V53.8123H1.26196C0.657883 53.8123 0.168213 54.3021 0.168213 54.9061C0.168213 55.51 0.657883 55.9998 1.26196 55.9998H3.12494H14.0624H20.6251H24.9999H35.9373H42.4997H46.8744H46.8745H46.8748H48.7379C49.3419 55.9998 49.8316 55.51 49.8316 54.9061C49.8316 54.302 49.3419 53.8123 48.7379 53.8123ZM19.5313 53.8123H15.1561V49.4377H19.5313V53.8123ZM23.9061 53.8123H21.7188V48.3439C21.7188 47.7399 21.2292 47.2502 20.6251 47.2502H14.0624C13.4582 47.2502 12.9686 47.7399 12.9686 48.3439V53.8123H4.21868V51.625H6.51927C7.12323 51.625 7.61301 51.1354 7.61301 50.5313C7.61301 49.9273 7.12323 49.4375 6.51927 49.4375H4.21868V16.6253H23.9061V53.8123ZM41.4059 53.8123H37.0311V49.4377H41.4059V53.8123ZM45.7807 53.8123H43.5934V48.3439C43.5934 47.7399 43.1036 47.2502 42.4997 47.2502H35.9373C35.3332 47.2502 34.8436 47.7399 34.8436 48.3439V53.8123H26.0936V51.625H28.3941C28.9981 51.625 29.4878 51.1354 29.4878 50.5313C29.4878 49.9273 28.9981 49.4375 28.3941 49.4375H26.0936V15.5315V2.18749H45.7807V53.8123Z" fill="#19BCE4"/>
</svg>
